<?xml version="1.0" encoding="iso-8859-1"?>
<!-- Generator: Adobe Illustrator 16.0.0, SVG Export Plug-In . SVG Version: 6.00 Build 0)  -->
<!DOCTYPE svg PUBLIC "-//W3C//DTD SVG 1.1//EN" "http://www.w3.org/Graphics/SVG/1.1/DTD/svg11.dtd">
<svg xmlns="http://www.w3.org/2000/svg" xmlns:xlink="http://www.w3.org/1999/xlink" version="1.1" x="0px" y="0px" width="512" height="512" viewBox="0 0 512 512" style="enable-background:new 0 0 512 512;" xml:space="preserve">
<g id="_x37_3_x2C__sketch_x2C__sketching_x2C__design_x2C__draw_x2C__geometry">
	<g>
		<path d="M410.05,442.006c-0.007,0-0.014,0-0.021,0l-285.999-2c-1.648-0.012-2.979-1.352-2.979-3v-148    c0-1.214,0.731-2.308,1.852-2.771c1.119-0.467,2.41-0.209,3.269,0.65l58.574,58.573l53.811,22.055l-22.282-54.369    c-0.115-0.279-0.186-0.574-0.212-0.874l-94.122-93.131c-0.57-0.563-0.89-1.331-0.89-2.132v-166c0-1.657,1.343-3,3-3h286    c1.657,0,3,1.343,3,3v388c0,0.799-0.319,1.565-0.886,2.129C411.602,441.692,410.842,442.006,410.05,442.006z M127.05,434.026    l280,1.958V54.006h-280v161.748l94.11,93.119c0.57,0.563,0.89,1.332,0.89,2.133v0.409l24.776,60.453    c0.458,1.119,0.201,2.404-0.655,3.259c-0.855,0.855-2.14,1.112-3.259,0.655l-61-25c-0.368-0.151-0.702-0.374-0.983-0.655    l-53.879-53.879V434.026z"/>
	</g>
	<g>
		<path d="M486.05,426.006h-60c-1.657,0-3-1.343-3-3v-342c0-1.657,1.343-3,3-3h60c1.657,0,3,1.343,3,3v342    C489.05,424.663,487.707,426.006,486.05,426.006z M429.05,420.006h54v-336h-54V420.006z"/>
	</g>
	<g>
		<path d="M486.05,107.006h-26c-1.657,0-3-1.343-3-3s1.343-3,3-3h26c1.657,0,3,1.343,3,3S487.707,107.006,486.05,107.006z"/>
	</g>
	<g>
		<path d="M486.05,127.006h-37c-1.657,0-3-1.343-3-3s1.343-3,3-3h37c1.657,0,3,1.343,3,3S487.707,127.006,486.05,127.006z"/>
	</g>
	<g>
		<path d="M486.05,147.006h-26c-1.657,0-3-1.343-3-3s1.343-3,3-3h26c1.657,0,3,1.343,3,3S487.707,147.006,486.05,147.006z"/>
	</g>
	<g>
		<path d="M486.05,167.006h-37c-1.657,0-3-1.343-3-3s1.343-3,3-3h37c1.657,0,3,1.343,3,3S487.707,167.006,486.05,167.006z"/>
	</g>
	<g>
		<path d="M486.05,186.006h-26c-1.657,0-3-1.343-3-3s1.343-3,3-3h26c1.657,0,3,1.343,3,3S487.707,186.006,486.05,186.006z"/>
	</g>
	<g>
		<path d="M486.05,207.006h-37c-1.657,0-3-1.343-3-3s1.343-3,3-3h37c1.657,0,3,1.343,3,3S487.707,207.006,486.05,207.006z"/>
	</g>
	<g>
		<path d="M486.05,226.006h-26c-1.657,0-3-1.343-3-3s1.343-3,3-3h26c1.657,0,3,1.343,3,3S487.707,226.006,486.05,226.006z"/>
	</g>
	<g>
		<path d="M486.05,246.006h-37c-1.657,0-3-1.343-3-3s1.343-3,3-3h37c1.657,0,3,1.343,3,3S487.707,246.006,486.05,246.006z"/>
	</g>
	<g>
		<path d="M486.05,265.006h-26c-1.657,0-3-1.343-3-3s1.343-3,3-3h26c1.657,0,3,1.343,3,3S487.707,265.006,486.05,265.006z"/>
	</g>
	<g>
		<path d="M486.05,286.006h-37c-1.657,0-3-1.343-3-3s1.343-3,3-3h37c1.657,0,3,1.343,3,3S487.707,286.006,486.05,286.006z"/>
	</g>
	<g>
		<path d="M486.05,305.006h-26c-1.657,0-3-1.343-3-3s1.343-3,3-3h26c1.657,0,3,1.343,3,3S487.707,305.006,486.05,305.006z"/>
	</g>
	<g>
		<path d="M486.05,325.006h-37c-1.657,0-3-1.343-3-3s1.343-3,3-3h37c1.657,0,3,1.343,3,3S487.707,325.006,486.05,325.006z"/>
	</g>
	<g>
		<path d="M486.05,345.006h-26c-1.657,0-3-1.343-3-3s1.343-3,3-3h26c1.657,0,3,1.343,3,3S487.707,345.006,486.05,345.006z"/>
	</g>
	<g>
		<path d="M486.05,365.006h-37c-1.657,0-3-1.343-3-3s1.343-3,3-3h37c1.657,0,3,1.343,3,3S487.707,365.006,486.05,365.006z"/>
	</g>
	<g>
		<path d="M486.05,384.006h-26c-1.657,0-3-1.343-3-3s1.343-3,3-3h26c1.657,0,3,1.343,3,3S487.707,384.006,486.05,384.006z"/>
	</g>
	<g>
		<path d="M486.05,404.006h-37c-1.657,0-3-1.343-3-3s1.343-3,3-3h37c1.657,0,3,1.343,3,3S487.707,404.006,486.05,404.006z"/>
	</g>
	<g>
		<path d="M248.05,236.006c-28.673,0-52-23.327-52-52c0-13.905,5.407-27.123,15.225-37.217    c9.899-10.178,22.959-15.783,36.775-15.783c29.224,0,53,23.776,53,53c0,13.917-5.467,26.972-15.394,36.761    C275.691,230.594,262.336,236.006,248.05,236.006z M248.05,137.006c-24.935,0-46,21.523-46,47c0,25.364,20.636,46,46,46    c25.916,0,47-20.636,47-46C295.05,158.09,273.966,137.006,248.05,137.006z"/>
	</g>
	<g>
		<path d="M335.05,187.006h-84c-1.657,0-3-1.343-3-3v-84c0-1.657,1.343-3,3-3h84c1.657,0,3,1.343,3,3v84    C338.05,185.663,336.707,187.006,335.05,187.006z M254.05,181.006h78v-78h-78V181.006z"/>
	</g>
	<g>
		<path d="M378.05,414.006h-102c-1.657,0-3-1.343-3-3s1.343-3,3-3h99v-105c0-1.657,1.343-3,3-3s3,1.343,3,3v108    C381.05,412.663,379.707,414.006,378.05,414.006z"/>
	</g>
	<g>
		<path d="M106.05,171.006c-1.657,0-3-1.343-3-3v-135c0-1.657,1.343-3,3-3h77c1.657,0,3,1.343,3,3s-1.343,3-3,3h-74v132    C109.05,169.663,107.707,171.006,106.05,171.006z"/>
	</g>
	<g>
		<path d="M244.05,376.006c-0.383,0-0.769-0.073-1.137-0.224l-61-25c-0.368-0.151-0.702-0.374-0.983-0.655l-131-131    c-1.172-1.171-1.172-3.071,0-4.242l36-36c1.171-1.172,3.071-1.172,4.242,0l131,131c0.281,0.281,0.504,0.615,0.655,0.983    l24.875,60.694c0.235,0.429,0.369,0.92,0.369,1.443c0,1.656-1.342,2.999-2.998,3C244.064,376.006,244.057,376.006,244.05,376.006z     M184.746,345.458l53.811,22.054l-22.054-53.811L88.05,185.249l-31.757,31.757L184.746,345.458z"/>
	</g>
	<g>
		<path d="M52.05,220.006c-0.768,0-1.536-0.293-2.121-0.879l-9-9c-1.172-1.171-1.172-3.071,0-4.242l36-36    c1.171-1.172,3.071-1.172,4.242,0l9,9c1.172,1.171,1.172,3.071,0,4.242l-36,36C53.586,219.713,52.818,220.006,52.05,220.006z     M47.293,208.006l4.757,4.757l31.757-31.757l-4.757-4.757L47.293,208.006z"/>
	</g>
	<g>
		<path d="M43.05,211.006c-0.768,0-1.536-0.293-2.121-0.879l-11.922-11.922c-3.797-3.298-5.995-7.939-6.192-13.082    c-0.214-5.584,2.014-11.138,6.115-15.238l12-12c3.952-3.952,9.1-6.129,14.496-6.129c5.364,0,10.395,2.261,13.824,6.207    l11.922,11.922c1.172,1.171,1.172,3.071,0,4.242l-36,36C44.586,210.713,43.818,211.006,43.05,211.006z M55.425,157.756    c-3.793,0-7.435,1.552-10.254,4.371l-12,12c-2.922,2.922-4.512,6.847-4.361,10.766c0.134,3.496,1.623,6.633,4.192,8.835    c0.059,0.05,0.115,0.102,0.169,0.157l9.879,9.878l31.757-31.757l-9.878-9.879c-0.055-0.054-0.107-0.11-0.157-0.169    C62.45,159.248,59.13,157.756,55.425,157.756z"/>
	</g>
	<g>
		<path d="M182.051,350.006c-0.782,0-1.563-0.304-2.151-0.908c-1.155-1.188-1.129-3.087,0.058-4.242l37-36    c1.188-1.155,3.087-1.129,4.243,0.059c1.155,1.188,1.129,3.087-0.058,4.242l-37,36    C183.559,349.724,182.805,350.006,182.051,350.006z"/>
	</g>
	<g>
		<path d="M206.05,327.006c-0.768,0-1.536-0.293-2.121-0.879l-130-130c-1.172-1.171-1.172-3.071,0-4.242    c1.171-1.172,3.071-1.172,4.242,0l130,130c1.172,1.171,1.172,3.071,0,4.242C207.586,326.713,206.818,327.006,206.05,327.006z"/>
	</g>
	<g>
		<path d="M195.05,338.006c-0.764,0-1.528-0.29-2.113-0.87l-131-130c-1.176-1.167-1.183-3.066-0.016-4.243    c1.167-1.176,3.067-1.183,4.243-0.016l131,130c1.176,1.168,1.183,3.067,0.016,4.243    C196.593,337.71,195.822,338.006,195.05,338.006z"/>
	</g>
	<g>
		<path d="M464.05,461.006h-309c-1.657,0-3-1.343-3-3s1.343-3,3-3h309c1.657,0,3,1.343,3,3S465.707,461.006,464.05,461.006z"/>
	</g>
	<g>
		<path d="M382.05,482.006h-132c-1.657,0-3-1.343-3-3s1.343-3,3-3h132c1.657,0,3,1.343,3,3S383.707,482.006,382.05,482.006z"/>
	</g>
	<g>
		<path d="M141.05,482.006h-59c-1.657,0-3-1.343-3-3s1.343-3,3-3h59c1.657,0,3,1.343,3,3S142.707,482.006,141.05,482.006z"/>
	</g>
	<g>
		<path d="M219.05,482.006h-27c-1.657,0-3-1.343-3-3s1.343-3,3-3h27c1.657,0,3,1.343,3,3S220.707,482.006,219.05,482.006z"/>
	</g>
</g>

</svg>
