<svg enable-background="new 0 0 512 512" height="512" viewBox="0 0 512 512" width="512" xmlns="http://www.w3.org/2000/svg"><path d="m445.244 419.725h-345.005v-345.056c0-1.795-1.453-3.249-3.249-3.249-1.791 0-3.244 1.453-3.244 3.249v28.997h-24.388c-1.791 0-3.244 1.453-3.244 3.244s1.453 3.244 3.244 3.244h24.389v19.762h-24.389c-1.791 0-3.244 1.453-3.244 3.249 0 1.791 1.453 3.244 3.244 3.244h24.389v19.758h-24.389c-1.791 0-3.244 1.453-3.244 3.244 0 1.795 1.453 3.249 3.244 3.249h24.389v19.767h-24.389c-1.791 0-3.244 1.453-3.244 3.244s1.453 3.244 3.244 3.244h24.389v19.767h-24.389c-1.791 0-3.244 1.453-3.244 3.244 0 1.795 1.453 3.249 3.244 3.249h24.389v19.763h-24.389c-1.791 0-3.244 1.453-3.244 3.244 0 1.795 1.453 3.244 3.244 3.244h24.389v19.771h-24.389c-1.791 0-3.244 1.453-3.244 3.244s1.453 3.244 3.244 3.244h24.389v19.762h-24.389c-1.791 0-3.244 1.453-3.244 3.244 0 1.8 1.453 3.253 3.244 3.253h24.389v19.763h-24.389c-1.791 0-3.244 1.453-3.244 3.244 0 1.79 1.453 3.243 3.244 3.243h24.389v19.772h-24.389c-1.791 0-3.244 1.453-3.244 3.243 0 1.791 1.453 3.244 3.244 3.244h24.389v19.847h-24.389c-1.791 0-3.244 1.453-3.244 3.244 0 1.79 1.453 3.243 3.244 3.243h24.389v19.772h-24.389c-1.791 0-3.244 1.453-3.244 3.243 0 1.791 1.453 3.244 3.244 3.244h24.389v20.681h-26.996c-1.791 0-3.244 1.453-3.244 3.244s1.453 3.244 3.244 3.244h26.996v24.253c0 1.79 1.453 3.243 3.244 3.243 1.795 0 3.249-1.453 3.249-3.243v-24.253h41.372v24.337c0 1.791 1.453 3.244 3.244 3.244 1.795 0 3.249-1.453 3.249-3.244v-24.337h19.795v24.337c0 1.791 1.453 3.244 3.244 3.244s3.244-1.453 3.244-3.244v-24.337h19.768v24.337c0 1.791 1.453 3.244 3.248 3.244 1.791 0 3.244-1.453 3.244-3.244v-24.337h19.762v24.337c0 1.791 1.453 3.244 3.249 3.244 1.791 0 3.244-1.453 3.244-3.244v-24.337h19.767v24.337c0 1.791 1.453 3.244 3.244 3.244s3.244-1.453 3.244-3.244v-24.337h19.767v24.337c0 1.791 1.453 3.244 3.244 3.244 1.795 0 3.248-1.453 3.248-3.244v-24.337h19.763v24.337c0 1.791 1.453 3.244 3.243 3.244 1.796 0 3.249-1.453 3.249-3.244v-24.337h19.767v24.337c0 1.791 1.453 3.244 3.244 3.244s3.244-1.453 3.244-3.244v-24.337h19.767v24.337c0 1.791 1.453 3.244 3.244 3.244 1.79 0 3.243-1.453 3.243-3.244v-24.337h19.768v24.337c0 1.791 1.453 3.244 3.244 3.244 1.795 0 3.248-1.453 3.248-3.244v-24.337h19.795v24.337c0 1.791 1.453 3.244 3.244 3.244s3.244-1.453 3.244-3.244v-24.337h19.767v24.337c0 1.791 1.453 3.244 3.244 3.244 1.795 0 3.248-1.453 3.248-3.244v-24.337h8.265c1.79 0 3.243-1.453 3.243-3.244s-1.457-3.246-3.247-3.246z"/><path d="m126.067 251.388c-1.795 0-3.244 1.453-3.244 3.248v140.499c0 1.79 1.449 3.243 3.244 3.243h30.422c1.791 0 3.244-1.453 3.244-3.243v-140.499c0-1.795-1.453-3.248-3.244-3.248zm27.174 140.493h-23.93v-133.996h23.93z"/><path d="m175.999 193.225c-1.791 0-3.244 1.453-3.244 3.249v198.661c0 1.79 1.453 3.243 3.244 3.243h30.422c1.791 0 3.244-1.453 3.244-3.243v-198.661c0-1.795-1.453-3.249-3.244-3.249zm27.178 198.656h-23.935v-192.164h23.935z"/><path d="m225.995 224.716c-1.795 0-3.248 1.453-3.248 3.244v167.175c0 1.79 1.453 3.243 3.248 3.243h30.389c1.795 0 3.244-1.453 3.244-3.243v-167.176c0-1.791-1.448-3.244-3.244-3.244h-30.389zm27.141 167.165h-23.896v-160.678h23.896z"/><path d="m275.927 176.528c-1.791 0-3.244 1.453-3.244 3.244v215.363c0 1.79 1.453 3.243 3.244 3.243h30.394c1.791 0 3.244-1.453 3.244-3.243v-215.363c0-1.791-1.453-3.244-3.244-3.244zm27.145 215.353h-23.897v-208.865h23.897z"/><path d="m325.891 142.052c-1.791 0-3.244 1.453-3.244 3.244v249.839c0 1.79 1.453 3.243 3.244 3.243h30.361c1.795 0 3.248-1.453 3.248-3.243v-249.84c0-1.791-1.453-3.244-3.248-3.244h-30.361zm27.117 249.829h-23.869v-243.337h23.869z"/><path d="m373.9 93.034v302.101c0 1.79 1.453 3.243 3.243 3.243h30.422c1.791 0 3.244-1.453 3.244-3.243v-302.101c0-1.795-1.453-3.248-3.244-3.248h-30.422c-1.789 0-3.243 1.453-3.243 3.248zm6.488 3.244h23.935v295.603h-23.935z"/><path d="m120.901 230.509 72.422-72.487 27.797 27.783c1.266 1.271 3.319 1.271 4.589.005l57.863-57.788 16.167 16.163c1.266 1.266 3.323 1.266 4.589-.005l73.458-73.439-.909 10.116c-.16 1.786 1.157 3.365 2.943 3.525 1.795.159 3.365-1.167 3.525-2.944.042-.483 1.758-19.692 1.715-19.209.09-1.055-.516-2.334-1.8-3.009-.914-.459.108-.276-21.206-1.008-1.814-.07-3.291 1.345-3.352 3.136s1.346 3.291 3.136 3.352l12.398.417-72.206 72.183-16.167-16.158c-1.266-1.266-3.319-1.266-4.585 0l-57.862 57.783-27.797-27.783c-1.275-1.275-3.333-1.266-4.594 0l-74.719 74.78c-1.266 1.27-1.266 3.323 0 4.589s3.325 1.264 4.595-.002z"/></svg>