<?xml version="1.0" encoding="iso-8859-1"?>
<!-- Generator: Adobe Illustrator 16.0.0, SVG Export Plug-In . SVG Version: 6.00 Build 0)  -->
<!DOCTYPE svg PUBLIC "-//W3C//DTD SVG 1.1//EN" "http://www.w3.org/Graphics/SVG/1.1/DTD/svg11.dtd">
<svg xmlns="http://www.w3.org/2000/svg" xmlns:xlink="http://www.w3.org/1999/xlink" version="1.1" x="0px" y="0px" width="512" height="512" viewBox="0 0 512 512" style="enable-background:new 0 0 512 512;" xml:space="preserve">
<g id="_x34_63_x2C__Aim_x2C__focus_x2C__goal_x2C__target_x2C__targeting">
	<g>
		<path d="M251.05,394.006c-46.264,0-89.723-17.98-122.371-50.629S78.05,267.27,78.05,221.006c0-95.944,77.607-174,173-174    c46.264,0,89.9,18.158,122.871,51.129c32.971,32.971,51.129,76.607,51.129,122.871C425.05,316.398,346.994,394.006,251.05,394.006    z M251.05,53.006c-92.084,0-167,75.364-167,168c0,92.084,74.916,167,167,167c92.635,0,168-74.916,168-167    C419.05,128.37,343.686,53.006,251.05,53.006z"/>
	</g>
	<g>
		<path d="M251.05,364.006c-38.042,0-73.91-14.917-100.996-42.004c-27.087-27.086-42.004-62.954-42.004-100.996    c0-79.402,64.149-144,143-144c38.526,0,74.704,14.961,101.871,42.129c27.167,27.167,42.129,63.346,42.129,101.871    C395.05,299.856,330.452,364.006,251.05,364.006z M251.05,83.006c-75.542,0-137,61.907-137,138c0,75.542,61.458,137,137,137    c76.093,0,138-61.458,138-137C389.05,144.913,327.144,83.006,251.05,83.006z"/>
	</g>
	<g>
		<path d="M251.05,335.006c-30.304,0-58.891-11.898-80.496-33.504c-21.605-21.604-33.504-50.192-33.504-80.496    c0-30.68,11.901-59.403,33.51-80.878c21.493-21.359,50.078-33.122,80.49-33.122c30.412,0,58.997,11.763,80.49,33.122    c21.609,21.475,33.51,50.198,33.51,80.878c0,30.304-11.898,58.892-33.504,80.496C309.941,323.107,281.354,335.006,251.05,335.006z     M251.05,113.006c-59.551,0-108,48.449-108,108c0,59.552,48.449,108,108,108s108-48.448,108-108    C359.05,161.455,310.602,113.006,251.05,113.006z"/>
	</g>
	<g>
		<path d="M251.05,305.006c-45.533,0-84-38.467-84-84c0-46.318,37.682-84,84-84c22.565,0,43.695,8.702,59.496,24.504    c15.802,15.801,24.504,36.931,24.504,59.496C335.05,267.323,297.368,305.006,251.05,305.006z M251.05,143.006    c-43.009,0-78,34.991-78,78c0,42.28,35.72,78,78,78c43.009,0,78-34.99,78-78C329.05,177.997,294.06,143.006,251.05,143.006z"/>
	</g>
	<g>
		<path d="M251.05,275.006c-29.776,0-54-24.224-54-54c0-30.28,23.72-54,54-54c30.785,0,54,23.215,54,54    C305.05,251.286,281.33,275.006,251.05,275.006z M251.05,173.006c-26.916,0-48,21.084-48,48c0,26.467,21.533,48,48,48    c26.916,0,48-21.084,48-48C299.05,193.642,278.414,173.006,251.05,173.006z"/>
	</g>
	<g>
		<path d="M251.05,245.006c-13.233,0-24-10.767-24-24c0-14.019,10.542-25,24-25c13.551,0,25,11.449,25,25    C276.05,233.791,264.368,245.006,251.05,245.006z M251.05,202.006c-10.093,0-18,8.346-18,19c0,9.925,8.075,18,18,18    c10.122,0,19-8.411,19-18C270.05,210.707,261.349,202.006,251.05,202.006z"/>
	</g>
	<g>
		<path d="M391.624,465.098H111.011c-0.883,0-1.72-0.389-2.291-1.063c-0.57-0.674-0.814-1.564-0.668-2.435l20.205-120.243    c0.186-1.105,0.972-2.015,2.038-2.358c1.067-0.345,2.236-0.064,3.032,0.725c31.617,31.325,73.52,48.576,117.99,48.576    c44.473,0,86.377-17.251,117.994-48.576c0.796-0.788,1.965-1.069,3.031-0.725c1.066,0.344,1.853,1.253,2.039,2.358l20.201,120.243    c0.146,0.87-0.099,1.761-0.669,2.435C393.345,464.709,392.507,465.098,391.624,465.098z M114.557,459.098h273.521l-18.674-111.149    c-32.223,29.934-73.934,46.352-118.086,46.352c-44.151,0-85.86-16.418-118.083-46.352L114.557,459.098z M192.367,63.634    c-0.713,0-1.415-0.254-1.97-0.737c-0.826-0.719-1.195-1.831-0.961-2.901l7.541-34.626c0.3-1.379,1.521-2.362,2.931-2.362h102.847    c1.412,0,2.633,0.984,2.932,2.364l7.514,34.626c0.232,1.07-0.137,2.181-0.963,2.9s-1.979,0.929-3.005,0.552    c-18.529-6.821-38.014-10.279-57.915-10.279s-39.386,3.458-57.915,10.279C193.066,63.573,192.715,63.634,192.367,63.634z     M251.318,47.17c18.791,0,37.226,2.978,54.881,8.859l-5.863-27.021h-98.011l-5.884,27.02    C214.095,50.147,232.528,47.17,251.318,47.17z"/>
	</g>
	<g>
		<path d="M384.05,419.006h-218c-1.657,0-3-1.343-3-3s1.343-3,3-3h218c1.657,0,3,1.343,3,3S385.707,419.006,384.05,419.006z"/>
	</g>
	<g>
		<path d="M251.051,224.006c-0.786,0-1.57-0.307-2.159-0.916c-1.151-1.192-1.118-3.091,0.074-4.242l174-168    c1.191-1.15,3.092-1.117,4.242,0.074c1.15,1.192,1.117,3.091-0.074,4.242l-174,168    C252.552,223.726,251.801,224.006,251.051,224.006z"/>
	</g>
	<g>
		<path d="M420.053,91.006c-0.194,0-0.393-0.019-0.591-0.059l-25-5c-1.096-0.219-1.979-1.029-2.292-2.102l-7-24    c-0.464-1.59,0.449-3.256,2.04-3.72c1.594-0.467,3.257,0.45,3.72,2.04l6.491,22.254l23.217,4.644    c1.625,0.325,2.679,1.906,2.354,3.53C422.706,90.021,421.454,91.006,420.053,91.006z"/>
	</g>
	<g>
		<path d="M431.053,80.006c-0.232,0-0.468-0.027-0.703-0.083l-25-6c-1.087-0.261-1.939-1.104-2.21-2.189l-6-24    c-0.402-1.607,0.575-3.236,2.183-3.638c1.608-0.402,3.235,0.577,3.638,2.183l5.559,22.235l23.231,5.576    c1.611,0.387,2.604,2.006,2.217,3.617C433.637,79.082,432.407,80.006,431.053,80.006z"/>
	</g>
	<g>
		<path d="M311.05,480.006h-214c-1.657,0-3-1.343-3-3s1.343-3,3-3h214c1.657,0,3,1.343,3,3S312.707,480.006,311.05,480.006z"/>
	</g>
	<g>
		<path d="M371.05,489.006h-149c-1.657,0-3-1.343-3-3s1.343-3,3-3h149c1.657,0,3,1.343,3,3S372.707,489.006,371.05,489.006z"/>
	</g>
	<g>
		<path d="M404.05,489.006h-18c-1.657,0-3-1.343-3-3s1.343-3,3-3h18c1.657,0,3,1.343,3,3S405.707,489.006,404.05,489.006z"/>
	</g>
	<g>
		<path d="M158.05,489.006h-70c-1.657,0-3-1.343-3-3s1.343-3,3-3h70c1.657,0,3,1.343,3,3S159.707,489.006,158.05,489.006z"/>
	</g>
</g>

</svg>
