<svg enable-background="new 0 0 512 512" height="512" viewBox="0 0 512 512" width="512" xmlns="http://www.w3.org/2000/svg"><path d="m131.378 368.242c-8.662 0-15.712 7.05-15.712 15.713 0 8.704 7.05 15.782 15.712 15.782 8.709 0 15.797-7.078 15.797-15.782 0-8.663-7.088-15.713-15.797-15.713zm0 25.008c-5.081 0-9.225-4.167-9.225-9.295 0-5.082 4.144-9.221 9.225-9.221 5.128 0 9.31 4.139 9.31 9.221 0 5.128-4.182 9.295-9.31 9.295z"/><path d="m202.609 368.242c-8.709 0-15.797 7.05-15.797 15.713 0 8.704 7.087 15.782 15.797 15.782 8.681 0 15.741-7.078 15.741-15.782 0-8.663-7.059-15.713-15.741-15.713zm0 25.008c-5.128 0-9.3-4.167-9.3-9.295 0-5.082 4.172-9.221 9.3-9.221 5.1 0 9.253 4.139 9.253 9.221 0 5.128-4.153 9.295-9.253 9.295z"/><path d="m190.975 339.799c-1.594-.835-3.553-.216-4.378 1.373l-43.2 82.631c-.834 1.59-.216 3.554 1.369 4.383 1.584.825 3.553.221 4.378-1.373l43.2-82.636c.834-1.589.216-3.549-1.369-4.378z"/><path d="m125.828 263.271h82.359c1.791 0 3.244-1.453 3.244-3.249 0-1.79-1.453-3.243-3.244-3.243h-82.359c-1.791 0-3.244 1.453-3.244 3.243 0 1.795 1.454 3.249 3.244 3.249z"/><path d="m125.828 282.521h82.359c1.791 0 3.244-1.453 3.244-3.243 0-1.791-1.453-3.244-3.244-3.244h-82.359c-1.791 0-3.244 1.453-3.244 3.244 0 1.79 1.454 3.243 3.244 3.243z"/><path d="m125.828 301.792h82.359c1.791 0 3.244-1.453 3.244-3.243 0-1.796-1.453-3.249-3.244-3.249h-82.359c-1.791 0-3.244 1.453-3.244 3.249 0 1.79 1.454 3.243 3.244 3.243z"/><path d="m125.828 320.979h82.359c1.791 0 3.244-1.453 3.244-3.244s-1.453-3.244-3.244-3.244h-82.359c-1.791 0-3.244 1.453-3.244 3.244s1.454 3.244 3.244 3.244z"/><path d="m427.253 353.95-104.681-181.322c-.919-1.598-2.935-2.063-4.435-1.19l-11.625 6.712 6.45-12.244c.516-.984.496-2.17-.057-3.131-18-30.797-16.547-29.648-18.216-30.431l-42.497-19.866c-.966-.45-2.082-.398-3 .131l-69.103 39.881h-9.057c-.619-18.108-2.859-38.466-9.037-52.027 9.703-10.523 17.063-21.881 14.587-30.501-1.678-5.85-7.285-9.59-16.669-11.119-44.822-7.35-90.853 51.047-70.744 74.592 6.103 7.111 16.931 15.225 26.7 22.945l-25.066 35.94c-1.069 1.547-.375.028-.591 35.452 0 1.116.572 2.151 1.519 2.747l11.793 7.449h-13.508c-1.791 0-3.244 1.453-3.244 3.244v209.33c0 1.795 1.453 3.248 3.244 3.248h153.938c1.791 0 3.244-1.453 3.244-3.248v-87.554l41.128 71.175c.891 1.547 2.868 2.086 4.425 1.187l133.313-76.964c1.545-.897 2.08-2.884 1.189-4.436zm-176.278-234.872 40.041 18.712 15.375 26.672-10.416 19.777-52.2 30.145c-.197-20.69.441-20.592-.581-22.059l-3.263-4.678c9.225-6.061 12.253-18.38 6.694-28.022-6.159-10.631-20.372-13.974-30.694-6.267-.6-.548-1.378-.867-2.194-.867h-20.662zm-14.756 63.244-16.519-23.7c7.05-5.354 16.969-3.225 21.3 4.256 3.872 6.699 1.716 15.286-4.781 19.444zm-142.116-53.11c-15.178-17.766 24.516-70.556 64.763-63.965 6.694 1.092 10.556 3.281 11.484 6.501 1.369 4.805-2.859 12.862-11.663 22.715-3.891-5.761-9.234-9.67-16.209-9.825-9.038-.239-15.844 4.209-18.225 11.883-4.575 14.737 8.653 30.666 23.888 17.311 2.981-2.611 6.047-5.433 9.019-8.367 4.959 12.361 6.825 30.543 7.369 47.025h-43.116c-1.884-1.5-3.769-2.981-5.606-4.425-8.738-6.862-16.988-13.349-21.704-18.853zm60.019-29.897c-3.038 3.089-6.469 6.314-10.256 9.638-2.7 2.362-6.609 4.729-9.91 2.583-6.141-3.984-6.872-20.789 8.363-20.405 5.334.118 9.018 3.661 11.803 8.184zm-57.413 126.671v-30.788l25.266-36.22h42.703c.056 4.303.038 8.405-.028 12.16-10.453 1.162-18.609 10.05-18.609 20.803 0 11.55 9.394 20.944 20.944 20.944 11.541 0 20.935-9.394 20.935-20.944 0-10.111-7.209-18.572-16.753-20.512.075-3.839.094-8.035.028-12.45h40.847c-.384-.511 4.341 6.328 25.247 36.22v30.788l-18.975 11.981h-102.639zm70.275-30.801c1.669 0 3.094-1.28 3.234-2.972.065-.806.487-6.188.769-14.137 6.019 1.739 10.444 7.293 10.444 13.865 0 7.969-6.487 14.452-14.447 14.452-7.969 0-14.447-6.483-14.447-14.452 0-7.106 5.166-13.021 11.934-14.212-.271 8.288-.712 13.749-.722 13.95-.158 1.888 1.332 3.506 3.235 3.506zm73.716 252.112h-147.441v-202.838h147.441zm51.618-19.191-45.122-78.089v-63.937c.619-.216-3.909 2.306 71.84-41.452 1.041-.6 1.622-1.697 1.622-2.813 0-2.475-2.7-4.059-4.865-2.808l-68.597 39.651v-14.747l62.25-35.943c1.05-.6 1.631-1.688 1.631-2.813 0-2.466-2.7-4.064-4.875-2.803l-59.006 34.069v-14.709l52.613-30.398c1.04-.6 1.622-1.692 1.622-2.817 0-2.466-2.691-4.06-4.866-2.803l-55.856 32.273h-10.238l11.794-7.449c.815-.525 1.359-1.378 1.481-2.334.047-.366.019-.07.028-6.305 37.247-21.492 46.762-26.958 74.793-43.195l101.438 175.701z"/><path d="m252.935 301.286c.9 1.556 2.878 2.086 4.435 1.19l71.315-41.208c1.04-.6 1.622-1.688 1.622-2.813 0-2.465-2.7-4.064-4.875-2.803l-71.307 41.203c-1.556.897-2.091 2.879-1.19 4.431z"/></svg>