<?xml version="1.0" encoding="iso-8859-1"?>
<!-- Generator: Adobe Illustrator 16.0.0, SVG Export Plug-In . SVG Version: 6.00 Build 0)  -->
<!DOCTYPE svg PUBLIC "-//W3C//DTD SVG 1.1//EN" "http://www.w3.org/Graphics/SVG/1.1/DTD/svg11.dtd">
<svg xmlns="http://www.w3.org/2000/svg" xmlns:xlink="http://www.w3.org/1999/xlink" version="1.1" x="0px" y="0px" width="512" height="512" viewBox="0 0 512 512" style="enable-background:new 0 0 512 512;" xml:space="preserve">
<g id="_x36_69_x2C__drag_x2C__mobile_x2C__design_x2C__ui_x2C__ux">
	<g>
		<path d="M357.05,455.006h-215c-11.72,0-22-10.28-22-22v-212c0-1.657,1.343-3,3-3h99v-73h-99c-1.657,0-3-1.343-3-3v-82    c0-11.72,10.28-22,22-22h215c12.131,0,22,9.869,22,22v220c0,1.657-1.343,3-3,3h-67v74h67c1.657,0,3,1.343,3,3v73    C379.05,445.137,369.181,455.006,357.05,455.006z M126.05,224.006v209c0,8.374,7.626,16,16,16h215c8.822,0,16-7.178,16-16v-70h-67    c-1.657,0-3-1.343-3-3v-80c0-1.657,1.343-3,3-3h67v-217c0-8.822-7.178-16-16-16h-215c-8.374,0-16,7.626-16,16v79h99    c1.657,0,3,1.343,3,3v79c0,1.657-1.343,3-3,3H126.05z"/>
	</g>
	<g>
		<path d="M376.05,103.006h-253c-1.657,0-3-1.343-3-3v-40c0-11.72,10.28-22,22-22h215c12.131,0,22,9.869,22,22v40    C379.05,101.663,377.707,103.006,376.05,103.006z M126.05,97.006h247v-37c0-8.822-7.178-16-16-16h-215c-8.374,0-16,7.626-16,16    V97.006z"/>
	</g>
	<g>
		<path d="M357.05,455.006h-215c-11.72,0-22-10.28-22-22v-54c0-1.657,1.343-3,3-3h253c1.657,0,3,1.343,3,3v54    C379.05,445.137,369.181,455.006,357.05,455.006z M126.05,382.006v51c0,8.374,7.626,16,16,16h215c8.822,0,16-7.178,16-16v-51    H126.05z"/>
	</g>
	<g>
		<path d="M250.05,432.006c-9.691,0-17-7.309-17-17s7.309-17,17-17c8.209,0,17,6.831,17,17S258.26,432.006,250.05,432.006z     M250.05,404.006c-6.374,0-11,4.626-11,11s4.626,11,11,11c5.203,0,11-4.518,11-11S255.253,404.006,250.05,404.006z"/>
	</g>
	<g>
		<path d="M269.05,70.006h-39c-1.657,0-3-1.343-3-3s1.343-3,3-3h39c1.657,0,3,1.343,3,3S270.707,70.006,269.05,70.006z"/>
	</g>
	<g>
		<path d="M355.05,473.006h-239c-1.657,0-3-1.343-3-3s1.343-3,3-3h239c1.657,0,3,1.343,3,3S356.707,473.006,355.05,473.006z"/>
	</g>
	<g>
		<path d="M428.05,489.006h-183c-1.657,0-3-1.343-3-3s1.343-3,3-3h183c1.657,0,3,1.343,3,3S429.707,489.006,428.05,489.006z"/>
	</g>
	<g>
		<path d="M470.05,489.006h-23c-1.657,0-3-1.343-3-3s1.343-3,3-3h23c1.657,0,3,1.343,3,3S471.707,489.006,470.05,489.006z"/>
	</g>
	<g>
		<path d="M166.05,489.006h-87c-1.657,0-3-1.343-3-3s1.343-3,3-3h87c1.657,0,3,1.343,3,3S167.707,489.006,166.05,489.006z"/>
	</g>
	<g>
		<path d="M394.05,106.006c-1.657,0-3-1.343-3-3v-58c0-8.374-7.626-16-16-16h-80c-1.657,0-3-1.343-3-3s1.343-3,3-3h80    c11.72,0,22,10.28,22,22v58C397.05,104.663,395.707,106.006,394.05,106.006z"/>
	</g>
	<g>
		<path d="M225.05,224.006h-154c-1.657,0-3-1.343-3-3v-79c0-1.657,1.343-3,3-3h154c1.657,0,3,1.343,3,3v79    C228.05,222.663,226.707,224.006,225.05,224.006z M74.05,218.006h148v-73h-148V218.006z"/>
	</g>
	<g>
		<path d="M134.05,167.006h-44c-1.657,0-3-1.343-3-3s1.343-3,3-3h44c1.657,0,3,1.343,3,3S135.707,167.006,134.05,167.006z"/>
	</g>
	<g>
		<path d="M183.05,185.006h-93c-1.657,0-3-1.343-3-3s1.343-3,3-3h93c1.657,0,3,1.343,3,3S184.707,185.006,183.05,185.006z"/>
	</g>
	<g>
		<path d="M183.05,200.006h-93c-1.657,0-3-1.343-3-3s1.343-3,3-3h93c1.657,0,3,1.343,3,3S184.707,200.006,183.05,200.006z"/>
	</g>
	<g>
		<path d="M105.05,247.006h-63c-1.657,0-3-1.343-3-3s1.343-3,3-3h63c1.657,0,3,1.343,3,3S106.707,247.006,105.05,247.006z"/>
	</g>
	<g>
		<path d="M105.05,266.006h-63c-1.657,0-3-1.343-3-3s1.343-3,3-3h63c1.657,0,3,1.343,3,3S106.707,266.006,105.05,266.006z"/>
	</g>
	<g>
		<path d="M105.05,284.006h-63c-1.657,0-3-1.343-3-3s1.343-3,3-3h63c1.657,0,3,1.343,3,3S106.707,284.006,105.05,284.006z"/>
	</g>
	<g>
		<path d="M105.05,302.006h-63c-1.657,0-3-1.343-3-3s1.343-3,3-3h63c1.657,0,3,1.343,3,3S106.707,302.006,105.05,302.006z"/>
	</g>
	<g>
		<path d="M105.05,320.006h-63c-1.657,0-3-1.343-3-3s1.343-3,3-3h63c1.657,0,3,1.343,3,3S106.707,320.006,105.05,320.006z"/>
	</g>
	<g>
		<path d="M105.05,339.006h-63c-1.657,0-3-1.343-3-3s1.343-3,3-3h63c1.657,0,3,1.343,3,3S106.707,339.006,105.05,339.006z"/>
	</g>
	<g>
		<path d="M355.05,225.006h-68c-1.657,0-3-1.343-3-3v-80c0-1.657,1.343-3,3-3h68c1.657,0,3,1.343,3,3v80    C358.05,223.663,356.707,225.006,355.05,225.006z M290.05,219.006h62v-74h-62V219.006z"/>
	</g>
	<g>
		<path d="M391.069,363.006c-0.006,0-0.014,0-0.02,0h-85c-1.657,0-3-1.343-3-3v-80c0-1.657,1.343-3,3-3h96c1.657,0,3,1.343,3,3v52    c0,0.972-0.47,1.882-1.262,2.445c-0.792,0.562-1.806,0.708-2.724,0.388l-17.24-5.996l9.965,29.895    c0.181,0.386,0.28,0.815,0.28,1.269C394.069,361.663,392.727,363.006,391.069,363.006z M309.05,357.006h77.838l-10.684-32.052    c-0.362-1.084-0.075-2.28,0.738-3.083c0.814-0.804,2.014-1.075,3.093-0.698l19.015,6.613v-44.78h-90V357.006z"/>
	</g>
	<g>
		<path d="M400.05,390.006c-0.241,0-0.484-0.029-0.725-0.089c-0.996-0.248-1.797-0.988-2.121-1.963l-21-63    c-0.362-1.085-0.075-2.281,0.739-3.085c0.815-0.804,2.018-1.073,3.096-0.695l63,22c0.975,0.34,1.705,1.157,1.936,2.163    c0.229,1.007-0.073,2.061-0.804,2.79l-21,21l-21.052,20.052C401.555,389.716,400.811,390.006,400.05,390.006z M383.827,328.852    l17.575,52.724l17.578-16.742l17.569-17.57L383.827,328.852z"/>
	</g>
	<g>
		<path d="M439.048,384.006c-0.644,0-1.292-0.206-1.84-0.632l-18-14c-1.308-1.018-1.544-2.902-0.526-4.21    c1.018-1.309,2.9-1.544,4.21-0.526l18,14c1.308,1.018,1.544,2.902,0.526,4.21C440.826,383.608,439.941,384.006,439.048,384.006z"/>
	</g>
	<g>
		<path d="M263.995,357.006h-5c-1.657,0-3-1.343-3-3s1.343-3,3-3h5c1.657,0,3,1.343,3,3S265.652,357.006,263.995,357.006z     M240.995,357.006h-5c-1.657,0-3-1.343-3-3s1.343-3,3-3h5c1.657,0,3,1.343,3,3S242.652,357.006,240.995,357.006z M217.995,357.006    h-5c-1.657,0-3-1.343-3-3s1.343-3,3-3h5c1.657,0,3,1.343,3,3S219.652,357.006,217.995,357.006z M194.995,357.006h-5    c-1.657,0-3-1.343-3-3s1.343-3,3-3h5c1.657,0,3,1.343,3,3S196.652,357.006,194.995,357.006z M171.995,357.006h-5    c-1.657,0-3-1.343-3-3s1.343-3,3-3h5c1.657,0,3,1.343,3,3S173.652,357.006,171.995,357.006z M279.821,349.951    c-0.659,0-1.322-0.216-1.876-0.66c-1.292-1.037-1.499-2.926-0.462-4.218c0.882-1.099,1.618-2.309,2.188-3.597    c0.671-1.516,2.438-2.2,3.958-1.528c1.515,0.671,2.199,2.442,1.528,3.958c-0.78,1.762-1.788,3.418-2.995,4.923    C281.57,349.567,280.7,349.951,279.821,349.951z M151.21,349.864c-0.884,0-1.76-0.389-2.353-1.136    c-1.198-1.511-2.196-3.172-2.967-4.938c-0.662-1.519,0.032-3.286,1.551-3.949c1.517-0.66,3.287,0.031,3.949,1.551    c0.563,1.29,1.292,2.504,2.168,3.608c1.029,1.298,0.812,3.185-0.486,4.215C152.521,349.652,151.863,349.864,151.21,349.864z     M284.05,327.922c-1.657,0-3-1.343-3-3v-5c0-1.657,1.343-3,3-3s3,1.343,3,3v5C287.05,326.579,285.707,327.922,284.05,327.922z     M147.05,327.813c-1.657,0-3-1.343-3-3v-5c0-1.657,1.343-3,3-3s3,1.343,3,3v5C150.05,326.47,148.707,327.813,147.05,327.813z     M284.05,304.922c-1.657,0-3-1.343-3-3v-5c0-1.657,1.343-3,3-3s3,1.343,3,3v5C287.05,303.579,285.707,304.922,284.05,304.922z     M147.05,304.813c-1.657,0-3-1.343-3-3v-5c0-1.657,1.343-3,3-3s3,1.343,3,3v5C150.05,303.47,148.707,304.813,147.05,304.813z     M284.05,281.922c-1.657,0-3-1.343-3-3v-5c0-1.657,1.343-3,3-3s3,1.343,3,3v5C287.05,280.579,285.707,281.922,284.05,281.922z     M147.05,281.813c-1.657,0-3-1.343-3-3v-5c0-1.657,1.343-3,3-3s3,1.343,3,3v5C150.05,280.47,148.707,281.813,147.05,281.813z     M282.108,259.216c-1.113,0-2.183-0.622-2.701-1.691c-0.611-1.261-1.388-2.42-2.308-3.446c-1.105-1.234-1.002-3.13,0.232-4.236    c1.232-1.106,3.13-1.003,4.236,0.231c1.292,1.442,2.381,3.067,3.237,4.832c0.723,1.491,0.102,3.285-1.39,4.009    C282.994,259.118,282.548,259.216,282.108,259.216z M149.04,259.118c-0.445,0-0.896-0.099-1.322-0.309    c-1.486-0.731-2.099-2.53-1.367-4.017c0.866-1.758,1.965-3.378,3.268-4.814c1.113-1.227,3.011-1.32,4.238-0.206    c1.227,1.113,1.319,3.011,0.206,4.238c-0.926,1.021-1.709,2.175-2.327,3.431C151.212,258.503,150.147,259.118,149.04,259.118z     M263.051,249.006h-5c-1.657,0-3-1.343-3-3s1.343-3,3-3h5c1.657,0,3,1.343,3,3S264.708,249.006,263.051,249.006z M240.05,249.006    h-5c-1.657,0-3-1.343-3-3s1.343-3,3-3h5c1.657,0,3,1.343,3,3S241.707,249.006,240.05,249.006z M217.05,249.006h-5    c-1.657,0-3-1.343-3-3s1.343-3,3-3h5c1.657,0,3,1.343,3,3S218.707,249.006,217.05,249.006z M194.05,249.006h-5    c-1.657,0-3-1.343-3-3s1.343-3,3-3h5c1.657,0,3,1.343,3,3S195.707,249.006,194.05,249.006z M171.05,249.006h-5    c-1.657,0-3-1.343-3-3s1.343-3,3-3h5c1.657,0,3,1.343,3,3S172.707,249.006,171.05,249.006z"/>
	</g>
</g>

</svg>
