<?xml version="1.0" encoding="iso-8859-1"?>
<!-- Generator: Adobe Illustrator 16.0.0, SVG Export Plug-In . SVG Version: 6.00 Build 0)  -->
<!DOCTYPE svg PUBLIC "-//W3C//DTD SVG 1.1//EN" "http://www.w3.org/Graphics/SVG/1.1/DTD/svg11.dtd">
<svg xmlns="http://www.w3.org/2000/svg" xmlns:xlink="http://www.w3.org/1999/xlink" version="1.1" x="0px" y="0px" width="512" height="512" viewBox="0 0 512 512" style="enable-background:new 0 0 512 512;" xml:space="preserve">
<g id="_x36_72_x2C__Done_x2C__fast_x2C__optimization_x2C__speed_x2C__sport">
	<g>
		<path d="M251.05,462.006c-96.495,0-175-78.505-175-175c0-47.179,18.201-91.436,51.25-124.617    c33.002-33.135,76.951-51.383,123.75-51.383c47.231,0,91.489,18.247,124.621,51.379c33.132,33.132,51.379,77.39,51.379,124.621    c0,46.8-18.248,90.748-51.383,123.751C342.485,443.805,298.229,462.006,251.05,462.006z M251.05,117.006    c-93.187,0-169,76.262-169,170c0,93.187,75.813,169,169,169c93.738,0,170-75.813,170-169    C421.05,193.268,344.788,117.006,251.05,117.006z"/>
	</g>
	<g>
		<path d="M251.05,422.006c-36.107,0-70.022-14.029-95.496-39.504c-25.475-25.474-39.504-59.389-39.504-95.496    c0-36.538,14.027-70.762,39.498-96.366c25.425-25.559,59.342-39.634,95.502-39.634c36.591,0,70.816,14.074,96.371,39.629    c25.556,25.555,39.629,59.78,39.629,96.371c0,36.16-14.075,70.076-39.634,95.502C321.812,407.979,287.588,422.006,251.05,422.006z     M251.05,157.006c-71.131,0-129,58.318-129,130c0,71.131,57.869,129,129,129c71.682,0,130-57.869,130-129    C381.05,214.109,323.947,157.006,251.05,157.006z"/>
	</g>
	<g>
		<path d="M207.05,123.006c-0.896,0-1.764-0.403-2.343-1.126c-8.807-11.009-13.657-24.814-13.657-38.874c0-32.523,27.477-60,60-60    c16.22,0,31.53,6.301,43.108,17.741c11.538,11.4,17.892,26.408,17.892,42.259c0,14.06-4.851,27.865-13.657,38.874    c-0.744,0.928-1.963,1.329-3.116,1.025c-15.298-4.08-28.938-5.899-44.226-5.899c-14.983,0-29.509,1.98-43.176,5.885    C207.602,122.968,207.325,123.006,207.05,123.006z M251.05,111.006c15.185,0,28.791,1.73,43.838,5.595    c7.21-9.683,11.161-21.537,11.161-33.595c0-29.776-24.673-54-55-54c-29.271,0-54,24.729-54,54    c0,12.048,3.943,23.891,11.141,33.568C221.816,112.879,236.225,111.006,251.05,111.006z"/>
	</g>
	<g>
		<path d="M260.05,117.006h-17c-1.657,0-3-1.343-3-3v-20c0-1.657,1.343-3,3-3h17c1.657,0,3,1.343,3,3v20    C263.05,115.663,261.707,117.006,260.05,117.006z M246.05,111.006h11v-14h-11V111.006z"/>
	</g>
	<g>
		<path d="M276.05,97.006h-50c-1.657,0-3-1.343-3-3v-23c0-1.657,1.343-3,3-3h50c1.657,0,3,1.343,3,3v23    C279.05,95.663,277.707,97.006,276.05,97.006z M229.05,91.006h44v-17h-44V91.006z"/>
	</g>
	<g>
		<path d="M255.05,302.006c-11.028,0-20-8.523-20-19c0-10.654,9.346-20,20-20c10.654,0,20,9.346,20,20    C275.05,293.482,266.078,302.006,255.05,302.006z M255.05,269.006c-7.327,0-14,6.673-14,14c0,7.047,6.411,13,14,13    c7.588,0,14-5.953,14-13C269.05,275.679,262.377,269.006,255.05,269.006z"/>
	</g>
	<g>
		<path d="M270.051,279.006c-0.058,0-0.115-0.002-0.173-0.005c-1.227-0.07-2.286-0.881-2.674-2.047    c-0.646-1.934-2.784-4.353-5.497-6.233c-2.702-0.899-5.26-1.715-7.657-1.715c-1.127,0-2.16-0.632-2.672-1.637    c-0.512-1.004-0.418-2.211,0.244-3.124l58-80c0.907-1.252,2.617-1.608,3.95-0.825c1.333,0.784,1.851,2.453,1.197,3.854l-42,90    C272.273,278.335,271.21,279.006,270.051,279.006z M259.393,263.749c1.566,0.397,3.099,0.908,4.605,1.411    c0.253,0.084,0.494,0.201,0.716,0.35c1.895,1.263,3.574,2.722,4.938,4.256l26.413-56.6L259.393,263.749z"/>
	</g>
	<g>
		<path d="M250.596,387.117c-0.593-0.003-1.173-0.004-1.762-0.014c-1.657-0.027-2.978-1.392-2.951-3.049    c0.027-1.656,1.415-2.986,3.048-2.951c0.555,0.009,1.107,0.008,1.663,0.014c1.066,0,2.127-0.019,3.186-0.055    c1.634-0.062,3.043,1.239,3.1,2.896s-1.24,3.044-2.896,3.101C252.858,387.097,251.729,387.117,250.596,387.117z M231.012,385.201    c-0.194,0-0.391-0.02-0.588-0.059l-0.984-0.199c-1.401-0.323-2.753-0.664-4.081-1.027c-1.598-0.438-2.539-2.088-2.102-3.686    c0.437-1.599,2.089-2.539,3.686-2.102c1.25,0.343,2.523,0.663,3.782,0.954l0.869,0.175c1.625,0.323,2.681,1.902,2.357,3.527    C233.667,384.213,232.414,385.201,231.012,385.201z M271.707,384.824c-1.379,0-2.62-0.956-2.928-2.358    c-0.354-1.618,0.669-3.218,2.288-3.573c1.573-0.345,3.155-0.734,4.7-1.156c1.596-0.434,3.248,0.506,3.685,2.104    c0.436,1.599-0.506,3.248-2.104,3.685c-1.643,0.448-3.322,0.861-4.995,1.229C272.137,384.801,271.92,384.824,271.707,384.824z     M209.327,377.692c-0.44,0-0.887-0.098-1.31-0.303c-1.55-0.754-3.092-1.554-4.584-2.378c-1.451-0.801-1.977-2.626-1.176-4.076    c0.8-1.45,2.625-1.977,4.076-1.176c1.401,0.773,2.851,1.525,4.308,2.233c1.49,0.725,2.11,2.52,1.386,4.01    C211.508,377.07,210.439,377.692,209.327,377.692z M293.391,377.335c-1.116,0-2.188-0.626-2.704-1.698    c-0.72-1.492-0.093-3.285,1.399-4.005c1.448-0.698,2.896-1.443,4.305-2.214c1.455-0.796,3.277-0.262,4.072,1.191    c0.795,1.454,0.262,3.277-1.191,4.072c-1.499,0.819-3.039,1.612-4.58,2.354C294.271,377.239,293.828,377.335,293.391,377.335z     M190.013,365.287c-0.671,0-1.347-0.224-1.905-0.684c-1.318-1.086-2.629-2.222-3.895-3.376c-1.224-1.117-1.311-3.015-0.194-4.238    c1.117-1.226,3.015-1.312,4.238-0.194c1.191,1.086,2.424,2.155,3.665,3.176c1.279,1.053,1.462,2.943,0.41,4.223    C191.738,364.914,190.878,365.287,190.013,365.287z M312.74,365.014c-0.87,0-1.733-0.377-2.326-1.104    c-1.048-1.283-0.856-3.173,0.428-4.221c1.239-1.012,2.475-2.074,3.671-3.159c1.228-1.112,3.123-1.02,4.237,0.208    c1.112,1.227,1.02,3.124-0.208,4.237c-1.272,1.154-2.587,2.285-3.907,3.362C314.078,364.792,313.407,365.014,312.74,365.014z     M174.116,348.737c-0.906,0-1.802-0.408-2.392-1.186c-1.032-1.36-2.045-2.766-3.01-4.177c-0.935-1.368-0.584-3.235,0.784-4.17    c1.369-0.936,3.235-0.583,4.169,0.783c0.909,1.33,1.863,2.654,2.836,3.935c1.001,1.32,0.744,3.202-0.576,4.204    C175.385,348.538,174.748,348.737,174.116,348.737z M328.655,348.492c-0.631,0-1.267-0.198-1.809-0.607    c-1.321-1-1.582-2.882-0.582-4.203c0.966-1.276,1.915-2.603,2.819-3.94c0.927-1.374,2.793-1.735,4.165-0.806    c1.373,0.928,1.733,2.792,0.806,4.165c-0.964,1.427-1.975,2.84-3.005,4.202C330.46,348.082,329.563,348.492,328.655,348.492z     M162.435,328.987c-1.149,0-2.245-0.664-2.742-1.781c-0.694-1.559-1.358-3.158-1.973-4.755c-0.596-1.546,0.173-3.282,1.719-3.878    c1.545-0.596,3.283,0.173,3.878,1.72c0.58,1.502,1.204,3.007,1.857,4.474c0.674,1.514-0.007,3.287-1.521,3.961    C163.257,328.903,162.842,328.987,162.435,328.987z M340.187,328.649c-0.396,0-0.799-0.079-1.185-0.245    c-1.522-0.655-2.225-2.42-1.57-3.941c0.632-1.467,1.235-2.979,1.795-4.495c0.576-1.554,2.303-2.345,3.854-1.774    c1.555,0.574,2.35,2.3,1.775,3.854c-0.597,1.614-1.239,3.225-1.912,4.787C342.454,327.97,341.349,328.649,340.187,328.649z     M155.601,307.089c-1.416,0-2.675-1.007-2.945-2.448c-0.315-1.68-0.59-3.389-0.819-5.08c-0.222-1.642,0.93-3.152,2.572-3.374    c1.643-0.225,3.153,0.93,3.375,2.571c0.215,1.59,0.474,3.197,0.77,4.777c0.305,1.628-0.768,3.196-2.396,3.501    C155.97,307.071,155.784,307.089,155.601,307.089z M346.758,306.664c-0.187,0-0.376-0.018-0.567-0.055    c-1.627-0.312-2.693-1.883-2.382-3.511c0.3-1.567,0.561-3.172,0.774-4.769c0.221-1.642,1.736-2.787,3.372-2.575    c1.643,0.221,2.795,1.73,2.575,3.372c-0.229,1.708-0.508,3.424-0.829,5.101C349.427,305.664,348.169,306.664,346.758,306.664z     M154.065,284.203c-0.052,0-0.104-0.001-0.156-0.004c-1.655-0.085-2.928-1.495-2.843-3.149c0.087-1.706,0.221-3.435,0.396-5.139    c0.17-1.647,1.649-2.848,3.292-2.677c1.648,0.17,2.847,1.644,2.677,3.292c-0.165,1.602-0.291,3.227-0.373,4.83    C156.977,282.959,155.652,284.203,154.065,284.203z M348.186,283.768c-1.572,0-2.894-1.225-2.991-2.815    c-0.099-1.595-0.242-3.217-0.427-4.819c-0.189-1.646,0.991-3.135,2.637-3.324c1.643-0.192,3.134,0.989,3.324,2.637    c0.196,1.709,0.35,3.438,0.454,5.138c0.102,1.654-1.156,3.077-2.81,3.179C348.311,283.766,348.248,283.768,348.186,283.768z     M158.021,261.613c-0.292,0-0.589-0.043-0.883-0.134c-1.583-0.486-2.473-2.165-1.986-3.749c0.502-1.632,1.052-3.274,1.635-4.88    c0.565-1.558,2.288-2.362,3.843-1.796c1.558,0.565,2.362,2.286,1.796,3.843c-0.549,1.513-1.067,3.06-1.54,4.597    C160.491,260.784,159.304,261.613,158.021,261.613z M344.032,261.205c-1.279,0-2.464-0.825-2.864-2.11    c-0.479-1.544-1.002-3.088-1.554-4.592c-0.57-1.555,0.228-3.279,1.783-3.85c1.553-0.57,3.279,0.227,3.85,1.783    c0.586,1.598,1.142,3.239,1.651,4.877c0.491,1.583-0.393,3.264-1.975,3.756C344.627,261.161,344.327,261.205,344.032,261.205z     M167.25,240.604c-0.516,0-1.038-0.133-1.515-0.413c-1.429-0.838-1.908-2.677-1.07-4.105c0.866-1.476,1.782-2.951,2.723-4.383    c0.91-1.385,2.769-1.77,4.155-0.86c1.385,0.91,1.77,2.77,0.86,4.155c-0.886,1.348-1.748,2.735-2.562,4.124    C169.282,240.074,168.279,240.604,167.25,240.604z M334.717,240.236c-1.023,0-2.021-0.524-2.582-1.468    c-0.821-1.382-1.689-2.761-2.581-4.098c-0.919-1.378-0.547-3.241,0.832-4.16c1.379-0.919,3.241-0.546,4.16,0.832    c0.949,1.423,1.873,2.89,2.747,4.361c0.847,1.424,0.378,3.265-1.047,4.112C335.766,240.1,335.238,240.236,334.717,240.236z     M181.096,222.292c-0.746,0-1.493-0.276-2.075-0.833c-1.196-1.146-1.237-3.045-0.091-4.242c1.181-1.232,2.412-2.454,3.659-3.631    c1.206-1.136,3.104-1.081,4.241,0.124c1.137,1.206,1.081,3.104-0.124,4.241c-1.174,1.107-2.333,2.257-3.443,3.416    C182.674,221.983,181.886,222.292,181.096,222.292z M198.792,207.675c-0.984,0-1.947-0.483-2.521-1.371    c-0.9-1.391-0.502-3.248,0.889-4.148c1.433-0.928,2.911-1.832,4.393-2.688c1.435-0.83,3.271-0.337,4.099,1.096    c0.829,1.435,0.338,3.27-1.096,4.099c-1.395,0.807-2.787,1.658-4.136,2.531C199.915,207.519,199.35,207.675,198.792,207.675z     M219.366,197.526c-1.234,0-2.39-0.767-2.827-1.997c-0.555-1.561,0.261-3.276,1.822-3.831c1.615-0.574,3.261-1.112,4.893-1.601    c1.591-0.472,3.259,0.428,3.734,2.015c0.475,1.587-0.428,3.259-2.015,3.733c-1.535,0.459-3.083,0.965-4.603,1.505    C220.038,197.47,219.699,197.526,219.366,197.526z M269.602,193.521c-0.182,0-0.365-0.017-0.55-0.051    c-1.584-0.293-3.194-0.549-4.786-0.76c-1.643-0.218-2.798-1.727-2.579-3.369c0.218-1.643,1.729-2.795,3.368-2.58    c1.692,0.225,3.405,0.497,5.089,0.809c1.629,0.301,2.705,1.866,2.404,3.496C272.28,192.511,271.02,193.521,269.602,193.521z     M241.724,192.433c-1.515,0-2.817-1.144-2.98-2.685c-0.174-1.647,1.02-3.125,2.667-3.299c1.696-0.18,3.421-0.317,5.127-0.41    c1.646-0.083,3.068,1.179,3.158,2.833s-1.179,3.068-2.833,3.158c-1.604,0.087-3.226,0.217-4.82,0.386    C241.936,192.427,241.829,192.433,241.724,192.433z"/>
	</g>
	<g>
		<path d="M340.05,476.006h-216c-1.657,0-3-1.343-3-3s1.343-3,3-3h216c1.657,0,3,1.343,3,3S341.707,476.006,340.05,476.006z"/>
	</g>
	<g>
		<path d="M400.05,489.006h-149c-1.657,0-3-1.343-3-3s1.343-3,3-3h149c1.657,0,3,1.343,3,3S401.707,489.006,400.05,489.006z"/>
	</g>
	<g>
		<path d="M433.05,489.006h-18c-1.657,0-3-1.343-3-3s1.343-3,3-3h18c1.657,0,3,1.343,3,3S434.707,489.006,433.05,489.006z"/>
	</g>
	<g>
		<path d="M187.05,489.006h-71c-1.657,0-3-1.343-3-3s1.343-3,3-3h71c1.657,0,3,1.343,3,3S188.707,489.006,187.05,489.006z"/>
	</g>
</g>

</svg>
