<?xml version="1.0" encoding="utf-8"?>
<!-- Generator: Adobe Illustrator 19.0.0, SVG Export Plug-In . SVG Version: 6.00 Build 0)  -->
<svg xmlns="http://www.w3.org/2000/svg" xmlns:xlink="http://www.w3.org/1999/xlink" version="1.1" id="Layer_1" x="0px" y="0px" viewBox="0 0 512 512" style="enable-background:new 0 0 512 512;" xml:space="preserve" width="512" height="512">
<g>
	<g>
		<path d="M426,460H138c-1.7,0-3-1.3-3-3V45c0-1.7,1.3-3,3-3h288c1.7,0,3,1.3,3,3v412C429,458.7,427.7,460,426,460z M141.1,454h282    V48H141L141.1,454L141.1,454z"/>
	</g>
	<g>
		<path d="M138.1,441h-26c-1.7,0-3-1.3-3-3V26c0-1.7,1.3-3,3-3h288c1.7,0,3,1.3,3,3v19c0,1.7-1.3,3-3,3H141v390    C141.1,439.7,139.7,441,138.1,441z M115.1,435h20V45c0-1.7,1.3-3,3-3h259V29H115L115.1,435L115.1,435z"/>
	</g>
	<g>
		<path d="M426,68H138c-1.7,0-3-1.3-3-3V45c0-1.7,1.3-3,3-3h288c1.7,0,3,1.3,3,3v20C429,66.7,427.7,68,426,68z M141.1,62h282V48H141    L141.1,62L141.1,62z"/>
	</g>
	<g>
		<path d="M426,298H138c-1.7,0-3-1.3-3-3v-89c0-1.7,1.3-3,3-3h288c1.7,0,3,1.3,3,3v89C429,296.7,427.7,298,426,298z M141.1,292h282    v-83H141L141.1,292L141.1,292z"/>
	</g>
	<g>
		<path d="M217.1,366h-43c-1.7,0-3-1.3-3-3v-43c0-1.7,1.3-3,3-3h43c1.7,0,3,1.3,3,3v43C220.1,364.7,218.7,366,217.1,366z M177.1,360    h37v-37h-37V360z"/>
	</g>
	<g>
		<path d="M275,366h-43c-1.7,0-3-1.3-3-3v-43c0-1.7,1.3-3,3-3h43c1.7,0,3,1.3,3,3v43C278,364.7,276.7,366,275,366z M235.1,360h37    v-37h-37L235.1,360L235.1,360z"/>
	</g>
	<g>
		<path d="M332,366h-43c-1.7,0-3-1.3-3-3v-43c0-1.7,1.3-3,3-3h43c1.7,0,3,1.3,3,3v43C335,364.7,333.7,366,332,366z M292,360h37v-37    h-37V360z"/>
	</g>
	<g>
		<path d="M390,366h-43c-1.7,0-3-1.3-3-3v-43c0-1.7,1.3-3,3-3h43c1.7,0,3,1.3,3,3v43C393,364.7,391.7,366,390,366z M350,360h37v-37    h-37V360z"/>
	</g>
	<g>
		<path d="M242.1,97h-83c-1.7,0-3-1.3-3-3s1.3-3,3-3h83c1.7,0,3,1.3,3,3S243.7,97,242.1,97z"/>
	</g>
	<g>
		<path d="M371,119H159c-1.7,0-3-1.3-3-3s1.3-3,3-3h212c1.7,0,3,1.3,3,3S372.7,119,371,119z"/>
	</g>
	<g>
		<path d="M371,133H159c-1.7,0-3-1.3-3-3s1.3-3,3-3h212c1.7,0,3,1.3,3,3S372.7,133,371,133z"/>
	</g>
	<g>
		<path d="M371,147H159c-1.7,0-3-1.3-3-3s1.3-3,3-3h212c1.7,0,3,1.3,3,3S372.7,147,371,147z"/>
	</g>
	<g>
		<path d="M371,160H159c-1.7,0-3-1.3-3-3s1.3-3,3-3h212c1.7,0,3,1.3,3,3S372.7,160,371,160z"/>
	</g>
	<g>
		<path d="M264,250H164c-1.7,0-3-1.3-3-3v-23c0-1.7,1.3-3,3-3h100c1.7,0,3,1.3,3,3v23C267,248.7,265.7,250,264,250z M167.1,244h94    v-17h-94L167.1,244L167.1,244z"/>
	</g>
	<g>
		<path d="M379,277H216c-1.7,0-3-1.3-3-3s1.3-3,3-3h163c1.7,0,3,1.3,3,3S380.7,277,379,277z"/>
	</g>
	<g>
		<path d="M329,474H87c-1.7,0-3-1.3-3-3s1.3-3,3-3h242c1.7,0,3,1.3,3,3S330.7,474,329,474z"/>
	</g>
	<g>
		<path d="M396,489H229c-1.7,0-3-1.3-3-3s1.3-3,3-3h167c1.7,0,3,1.3,3,3S397.7,489,396,489z"/>
	</g>
	<g>
		<path d="M434,489h-21c-1.7,0-3-1.3-3-3s1.3-3,3-3h21c1.7,0,3,1.3,3,3S435.7,489,434,489z"/>
	</g>
	<g>
		<path d="M157.1,489h-79c-1.7,0-3-1.3-3-3s1.3-3,3-3h79c1.7,0,3,1.3,3,3S158.7,489,157.1,489z"/>
	</g>
	<g>
		<path d="M426,422H138c-1.7,0-3-1.3-3-3v-21c0-1.7,1.3-3,3-3h288c1.7,0,3,1.3,3,3v21C429,420.7,427.7,422,426,422z M141.1,416h282    v-15H141L141.1,416L141.1,416z"/>
	</g>
</g>
</svg>
